<svg width="4421" height="1565" viewBox="0 0 4421 1565" fill="none" xmlns="http://www.w3.org/2000/svg">
<path d="M3605.75 521.667C3767 521.667 3808.33 581.228 3808.33 782.5C3808.33 983.185 3767 1043.33 3605.75 1043.33H3400.24C3238.99 1043.33 3198.24 982.891 3198.24 782.5C3198.24 581.228 3238.99 521.667 3400.24 521.667H3605.75ZM1151.02 605.58H847.296C787.782 605.581 768.139 631.107 768.139 700.056V864.359C768.139 933.307 787.782 958.832 847.296 958.832H1036.1C1036.1 958.832 1036.1 900.169 1036.1 855.062C1036.1 796.582 1000.04 796.582 1000.04 796.582V758.441H1192.36V1036.88H813.876C653.218 1036.58 611.879 977.024 611.879 782.208C611.879 587.39 653.217 527.83 813.876 527.83H1151.02V605.58ZM1694.86 527.83C1783.39 527.83 1822.68 571.546 1822.68 681.277C1822.68 780.153 1791.31 825.336 1720.95 833.257L1859.62 1036.58H1672.28L1537.13 834.432H1415.76V1036.58H1259.79V527.83H1694.86ZM2060.15 1036.58H1903.89V527.83H2060.15V1036.58ZM2626.85 605.58H2364.76C2305.24 605.58 2285.6 631.107 2285.6 700.056V864.359C2285.6 933.307 2305.24 958.832 2364.76 958.832H2626.85V1036.58H2331.92C2170.68 1036.58 2129.34 977.024 2129.34 782.208C2129.34 587.39 2170.68 527.83 2331.92 527.83H2626.85V605.58ZM3160.72 605.58H2898.62C2839.11 605.58 2819.46 631.107 2819.46 700.056V864.359C2819.46 933.307 2839.11 958.832 2898.62 958.832H3160.72V1036.58H2865.78C2704.54 1036.58 2663.2 977.024 2663.2 782.208C2663.2 587.391 2704.54 527.83 2865.78 527.83H3160.72V605.58ZM3433.66 599.125C3374.15 599.125 3354.5 624.651 3354.5 693.6V870.812C3354.5 939.761 3374.15 965.287 3433.66 965.287H3573.21V965.582C3632.14 965.582 3652.36 940.055 3652.36 871.107V693.6C3652.36 624.651 3632.14 599.125 3573.21 599.125H3433.66ZM1416.05 757.561H1612.77C1652.64 757.561 1666.42 742.304 1666.42 699.468V663.086C1666.42 620.25 1652.64 605.581 1612.77 605.58H1416.05V757.561Z" fill="black"/>
</svg>
