<svg width="24" height="24" viewBox="0 0 24 24" fill="none" xmlns="http://www.w3.org/2000/svg">
<path d="M12.0264 24.0071H11.9736C5.37143 24.0071 0 18.6341 0 12.0299V11.9771C0 5.373 5.37143 0 11.9736 0H12.0264C18.6286 0 24 5.373 24 11.9771V12.0299C24 18.6341 18.6286 24.0071 12.0264 24.0071ZM11.9736 0.812614C5.81904 0.812614 0.812375 5.82075 0.812375 11.9771V12.0299C0.812375 18.1863 5.81904 23.1944 11.9736 23.1944H12.0264C18.181 23.1944 23.1876 18.1863 23.1876 12.0299V11.9771C23.1876 5.82075 18.181 0.812614 12.0264 0.812614H11.9736Z" fill="black"/>
<path d="M15.5878 5.12549H8.41294C6.43074 5.12549 4.81818 6.73853 4.81818 8.72131V15.2872C4.81818 17.27 6.43074 18.883 8.41294 18.883H15.5878C17.57 18.883 19.1826 17.27 19.1826 15.2872V8.72131C19.1826 6.73853 17.57 5.12549 15.5878 5.12549ZM6.0863 8.72131C6.0863 7.43819 7.1302 6.39397 8.41294 6.39397H15.5878C16.8706 6.39397 17.9145 7.43819 17.9145 8.72131V15.2872C17.9145 16.5703 16.8706 17.6146 15.5878 17.6146H8.41294C7.1302 17.6146 6.0863 16.5703 6.0863 15.2872V8.72131Z" fill="black"/>
<path d="M12.0004 15.3481C13.8437 15.3481 15.3442 13.848 15.3442 12.0034C15.3442 10.1588 13.8445 8.65869 12.0004 8.65869C10.1563 8.65869 8.65668 10.1588 8.65668 12.0034C8.65668 13.848 10.1563 15.3481 12.0004 15.3481ZM12.0004 9.92798C13.1451 9.92798 14.076 10.8592 14.076 12.0042C14.076 13.1492 13.1451 14.0805 12.0004 14.0805C10.8558 14.0805 9.9248 13.1492 9.9248 12.0042C9.9248 10.8592 10.8558 9.92798 12.0004 9.92798Z" fill="black"/>
<path d="M15.6537 9.19935C16.15 9.19935 16.5546 8.79549 16.5546 8.29817C16.5546 7.80085 16.1508 7.39697 15.6537 7.39697C15.1565 7.39697 14.7527 7.80085 14.7527 8.29817C14.7527 8.79549 15.1565 9.19935 15.6537 9.19935Z" fill="black"/>
</svg>
