<svg width="24" height="24" viewBox="0 0 24 24" fill="none" xmlns="http://www.w3.org/2000/svg">
<path d="M12.0264 24.0071H11.9736C5.37142 24.0071 0 18.6341 0 12.0299V11.9771C0 5.37302 5.37142 0 11.9736 0H12.0264C18.6286 0 24 5.37302 24 11.9771V12.0299C24 18.6341 18.6286 24.0071 12.0264 24.0071ZM11.9736 0.812614C5.81904 0.812614 0.812375 5.82077 0.812375 11.9771V12.0299C0.812375 18.1863 5.81904 23.1944 11.9736 23.1944H12.0264C18.181 23.1944 23.1876 18.1863 23.1876 12.0299V11.9771C23.1876 5.82077 18.181 0.812614 12.0264 0.812614H11.9736Z" fill="black"/>
<path d="M13.6146 9.3118V11.8382H16.739L16.2442 15.2414H13.6146V23.0824C13.0874 23.1555 12.5479 23.1937 12.0004 23.1937C11.3684 23.1937 10.7477 23.1433 10.1433 23.0458V15.2414H7.26181V11.8382H10.1433V8.74704C10.1433 6.82927 11.6974 5.27393 13.6154 5.27393V5.27555C13.6211 5.27555 13.626 5.27393 13.6316 5.27393H16.7398V8.21721H14.7089C14.1053 8.21721 13.6154 8.70722 13.6154 9.31099L13.6146 9.3118Z" fill="black"/>
</svg>
