<svg width="24" height="24" viewBox="0 0 24 24" fill="none" xmlns="http://www.w3.org/2000/svg">
<path d="M12 24.0071C5.38294 24.0071 0 18.6226 0 12.0035C0 5.38453 5.38294 0 12 0C18.6171 0 24 5.38453 24 12.0035C24 18.6226 18.6171 24.0071 12 24.0071ZM12 0.814849C5.83261 0.814849 0.814609 5.83432 0.814609 12.0035C0.814609 18.1728 5.83261 23.1922 12 23.1922C18.1674 23.1922 23.1854 18.1728 23.1854 12.0035C23.1854 5.83432 18.1674 0.814849 12 0.814849Z" fill="black"/>
<path d="M19.2997 9.60077C19.2085 8.71992 19.0122 7.74617 18.2896 7.23445C17.73 6.83761 16.9944 6.82294 16.3077 6.82376C14.856 6.82457 13.4036 6.82621 11.9519 6.82702C10.5557 6.82865 9.15947 6.82947 7.76323 6.8311C7.17997 6.83191 6.613 6.78629 6.07128 7.03889C5.60614 7.25564 5.24201 7.66794 5.02288 8.1267C4.71903 8.76473 4.65549 9.48751 4.61884 10.1932C4.55122 11.4782 4.55856 12.7665 4.6392 14.0507C4.69867 14.9877 4.84937 16.0234 5.57356 16.6207C6.21547 17.1495 7.12131 17.1756 7.95384 17.1764C10.5964 17.1789 13.2398 17.1813 15.8833 17.1829C16.2221 17.1838 16.5757 17.1772 16.9211 17.1398C17.6004 17.0664 18.2481 16.8717 18.6847 16.3681C19.1254 15.8604 19.2386 15.154 19.3054 14.485C19.4683 12.8618 19.4667 11.2231 19.2997 9.60077ZM10.4237 14.2788V9.72789L14.3632 12.0029L10.4237 14.2788Z" fill="black"/>
</svg>
