<svg width="24" height="24" viewBox="0 0 24 24" fill="none" xmlns="http://www.w3.org/2000/svg">
<path d="M12.0264 24.0071H11.9736C5.37143 24.0071 0 18.6341 0 12.0299V11.9771C0 5.37301 5.37143 0 11.9736 0H12.0264C18.6286 0 24 5.37301 24 11.9771V12.0299C24 18.6341 18.6286 24.0071 12.0264 24.0071ZM11.9736 0.812614C5.81905 0.812614 0.812375 5.82076 0.812375 11.9771V12.0299C0.812375 18.1863 5.81905 23.1945 11.9736 23.1945H12.0264C18.1809 23.1945 23.1876 18.1863 23.1876 12.0299V11.9771C23.1876 5.82076 18.1809 0.812614 12.0264 0.812614H11.9736Z" fill="black"/>
<path d="M5.93603 8.11559C5.63057 7.83198 5.47867 7.48094 5.47867 7.06326C5.47867 6.64557 5.63139 6.27907 5.93603 5.99466C6.24148 5.71105 6.63467 5.56885 7.11641 5.56885C7.59815 5.56885 7.97591 5.71105 8.28055 5.99466C8.586 6.27826 8.7379 6.63501 8.7379 7.06326C8.7379 7.4915 8.58519 7.83198 8.28055 8.11559C7.97509 8.39919 7.58759 8.5414 7.11641 8.5414C6.64523 8.5414 6.24148 8.39919 5.93603 8.11559ZM8.4812 9.74244V18.4374H5.73456V9.74244H8.4812Z" fill="black"/>
<path d="M17.6245 10.6011C18.2232 11.2512 18.5222 12.1435 18.5222 13.2795V18.2836H15.9136V13.6322C15.9136 13.0593 15.765 12.614 15.4684 12.297C15.1719 11.9801 14.7722 11.8208 14.2718 11.8208C13.7714 11.8208 13.3717 11.9793 13.0752 12.297C12.7787 12.614 12.63 13.0593 12.63 13.6322V18.2836H10.006V9.71781H12.63V10.8538C12.8956 10.4752 13.2539 10.1761 13.704 9.9559C14.154 9.73568 14.6601 9.62598 15.2231 9.62598C16.2256 9.62598 17.0266 9.95102 17.6245 10.6011Z" fill="black"/>
</svg>
