<?xml version='1.0' encoding='utf-8'?>
<svg xmlns="http://www.w3.org/2000/svg" xml:space="preserve" width="845.728mm" height="138.023mm" version="1.1" style="shape-rendering:geometricPrecision; text-rendering:geometricPrecision; image-rendering:optimizeQuality; fill-rule:evenodd; clip-rule:evenodd" viewBox="0 0 84572.8 13802.3">
 <defs>
  </defs>
 <g id="Camada_x0020_1">
  <metadata id="CorelCorpID_0Corel-Layer" />
  <path d="M79202.39 -0.06c4266.41,0 5359.93,1575.89 5359.93,6901.21 0,5309.79 -1093.52,6901.13 -5359.93,6901.13l-5437.45 0c-4266.41,0 -5344.59,-1599.12 -5344.59,-6901.13 0,-5325.32 1078.18,-6901.21 5344.59,-6901.21l5437.45 0zm-64948.07 2220.2l-8036.03 0c-1574.64,0.03 -2094.36,675.4 -2094.36,2499.68l0 4347.18c0,1824.25 519.72,2499.6 2094.36,2499.6l4995.44 0c0,0 0,-1552.12 0,-2745.58 0,-1547.28 -954.08,-1547.28 -954.08,-1547.28l0 -1009.15 5088.46 0 0 7367.03 -10014.05 0c-4250.75,-7.94 -5344.51,-1583.69 -5344.51,-6738.2 0,-5154.56 1093.74,-6730.41 5344.51,-6730.41l8920.26 0 0 2057.13zm14389.1 -2057.13c2342.36,0 3381.91,1156.65 3381.91,4059.95 0,2616.09 -830,3811.56 -2691.61,4021.14l3668.98 5379.58 -4956.7 0 -3575.85 -5348.5 -3211.25 0 0 5348.5 -4126.7 0 0 -13460.67 11511.22 0zm9664.97 13460.67l-4134.38 0 0 -13460.67 4134.38 0 0 13460.67zm14993.94 -11403.54l-6934.47 0c-1574.8,0 -2094.44,675.4 -2094.44,2499.68l0 4347.18c0,1824.25 519.64,2499.6 2094.44,2499.6l6934.47 0 0 2057.08 -7803.36 0c-4266.14,0 -5359.93,-1575.75 -5359.93,-6730.26 0,-5154.56 1093.79,-6730.41 5359.93,-6730.41l7803.36 0 0 2057.13zm14125.31 0l-6934.73 0c-1574.54,0 -2094.44,675.4 -2094.44,2499.68l0 4347.18c0,1824.25 519.9,2499.6 2094.44,2499.6l6934.73 0 0 2057.08 -7803.62 0c-4266.14,0 -5359.93,-1575.75 -5359.93,-6730.26 0,-5154.53 1093.79,-6730.41 5359.93,-6730.41l7803.62 0 0 2057.13zm7221.54 -170.79c-1574.54,0 -2094.45,675.38 -2094.45,2499.65l0 4688.74c0,1824.27 519.91,2499.65 2094.45,2499.65l3692.26 0 0 7.8c1559.19,0 2094.17,-675.4 2094.17,-2499.65l0 -4696.54c0,-1824.27 -534.98,-2499.65 -2094.17,-2499.65l-3692.26 0zm-53382.6 4191.96l5204.88 0c1054.89,0 1419.49,-403.68 1419.49,-1537.05l0 -962.61c0,-1133.36 -364.6,-1521.48 -1419.49,-1521.51l-5204.88 0 0 4021.17z" fill="white" fill-rule="nonzero" />
 </g>
</svg>