<?xml version="1.0" encoding="utf-8"?>
<svg version="1.1" id="Camada_1"
	 xmlns="http://www.w3.org/2000/svg" xmlns:xlink="http://www.w3.org/1999/xlink" x="0px" y="0px" width="2397.339px"
	 height="391.246px" viewBox="0 0 2397.339 391.246" xml:space="preserve">
<g id="Camada_x0020_1">
	<path fill="#141B4D" d="M2245.107-0.002c120.938,0,151.935,44.671,151.935,195.625c0,150.514-30.998,195.623-151.935,195.623
		h-154.133c-120.937,0-151.5-45.329-151.5-195.623c0-150.954,30.563-195.625,151.5-195.625L2245.107-0.002L2245.107-0.002z
		 M404.06,62.933H176.267c-44.635,0.001-59.368,19.145-59.368,70.857v123.227c0,51.711,14.732,70.855,59.368,70.855H317.87
		c0,0,0-43.997,0-77.827c0-43.86-27.045-43.86-27.045-43.86v-28.606h144.24v208.829H151.202
		C30.708,386.183-0.296,341.516-0.296,195.404C-0.296,49.29,30.708,4.621,151.202,4.621H404.06V62.933L404.06,62.933z M811.94,4.621
		c66.398,0,95.865,32.787,95.865,115.085c0,74.157-23.528,108.044-76.298,113.985L935.51,386.183H795.005L693.642,234.572h-91.028
		v151.611H485.637V4.621L811.94,4.621L811.94,4.621z M1085.907,386.183H968.712V4.621h117.195V386.183z M1510.932,62.933h-196.568
		c-44.64,0-59.37,19.145-59.37,70.857v123.227c0,51.711,14.73,70.855,59.37,70.855h196.568v58.311h-221.198
		c-120.93,0-151.935-44.667-151.935-190.779c0-146.114,31.005-190.783,151.935-190.783h221.198V62.933z M1911.335,62.933H1714.76
		c-44.633,0-59.37,19.145-59.37,70.857v123.227c0,51.711,14.737,70.855,59.37,70.855h196.575v58.311H1690.13
		c-120.93,0-151.935-44.667-151.935-190.779c0-146.113,31.005-190.783,151.935-190.783h221.205V62.933z M2116.04,58.092
		c-44.633,0-59.37,19.145-59.37,70.856v132.909c0,51.712,14.738,70.856,59.37,70.856h104.662v0.221
		c44.198,0,59.362-19.145,59.362-70.856v-133.13c0-51.712-15.165-70.856-59.362-70.856L2116.04,58.092L2116.04,58.092z
		 M602.832,176.919h147.54c29.902,0,40.237-11.443,40.237-43.57v-27.287c0-32.127-10.335-43.129-40.237-43.129h-147.54V176.919z"/>
</g>
</svg>