<svg width="726" height="651" viewBox="0 0 726 651" fill="none" xmlns="http://www.w3.org/2000/svg">
<path d="M301.755 395.262L417.933 389.829C407.731 380.127 395.416 370.881 380.033 361.446C341.623 337.887 310.069 330.663 273.409 332.377L255.257 288.915C251.166 290.218 247.367 291.745 243.819 293.509C231.058 299.856 220.904 309.586 212.17 324.294C196.057 351.43 197.62 377.714 211.766 411.571L165.486 413.735C168.604 418.203 171.916 422.451 175.47 426.523C187.411 440.2 202.623 452.622 223.441 465.391C261.85 488.949 293.406 496.173 330.065 494.459L339.218 516.363L339.209 516.364L347.509 536.228C350.59 535.137 353.509 533.923 356.267 532.551C369.029 526.205 379.182 516.474 387.916 501.766C389.442 499.197 390.809 496.636 392.021 494.076C401.834 473.351 401.54 452.66 393.461 428.211L317.016 431.786L301.755 395.262ZM294.011 283.01C279.208 283.61 266.95 285.358 256.561 288.5C303.894 286.644 356.361 301.981 402.642 331.26C431.68 349.631 456.8 372.557 476.081 397.846C461.965 364.653 441.99 339.582 404.752 315.296C384.613 302.163 367.209 293.841 350.05 288.903C332.845 283.953 315.029 282.159 294.011 283.01ZM222.102 250.154C188.605 252.617 165.814 262.739 149.131 287.529C146.242 291.822 143.822 296.031 141.844 300.207C137.388 309.618 135.181 318.86 134.916 328.53C134.535 342.527 138.205 358.119 146.154 377.486C151.056 389.427 156.404 399.883 162.522 409.327C147.872 371.595 147.709 334.775 161.858 304.856C163.649 301.07 165.668 297.394 167.916 293.842C180.272 274.318 198.929 259.447 222.102 250.154ZM435.32 410.927C436.101 412.762 437.061 415.042 437.748 416.826C439.126 420.401 440.975 425.989 440.975 425.989L440.868 425.994C452.138 460.459 451.221 493.746 438.232 521.214C436.443 524.996 434.425 528.668 432.179 532.218C411.463 564.953 373.013 584.591 325.305 586.824C277.596 589.055 224.523 573.694 177.768 544.116C131.013 514.535 94.3982 473.159 75.9855 429.096L123.419 426.877C137.567 460.735 157.599 486.154 195.334 510.764C215.473 523.897 232.878 532.219 250.037 537.157C267.241 542.107 285.059 543.901 306.075 543.05C319.362 542.512 330.59 541.029 340.264 538.462C294.701 538.712 244.953 523.478 200.825 495.56C154.07 465.98 117.464 424.603 99.0514 380.539C82.6372 341.257 81.8808 302.701 96.5875 271.603C98.3775 267.818 100.396 264.143 102.644 260.591C123.361 227.856 161.806 208.209 209.515 205.977L218.671 227.89L218.68 227.889L227.187 248.249C241.587 243.118 257.584 240.041 274.79 239.236C322.5 237.005 375.572 252.365 422.327 281.944C469.081 311.524 505.698 352.902 524.11 396.964L477.079 399.164C488.388 414.203 497.637 430.058 504.416 446.281C520.83 485.563 521.587 524.119 506.88 555.217C505.09 559.002 503.071 562.677 500.823 566.229C480.107 598.964 441.662 618.611 393.953 620.843L384.8 598.938L384.795 598.947L375.638 577.034C412.297 575.32 436.725 565.486 454.343 539.308C457.232 535.015 459.652 530.806 461.629 526.631C466.086 517.22 468.293 507.976 468.558 498.307C468.94 484.309 465.269 468.717 457.32 449.35C450.6 432.98 443.049 419.395 433.807 407.394L435.32 410.927Z" fill="#EFF1F3"/>
<path d="M491.37 136.031C444.615 106.452 391.542 91.0917 343.833 93.3225L274.791 239.235C322.5 237.004 375.572 252.365 422.327 281.944L491.37 136.031Z" fill="url(#paint0_linear_497_339)"/>
<path d="M593.153 251.051C574.741 206.989 538.124 165.611 491.37 136.031L422.327 281.944C469.081 311.524 505.698 352.901 524.11 396.964L593.153 251.051Z" fill="url(#paint1_linear_497_339)"/>
<path d="M287.714 81.9765L278.558 60.0639L209.515 205.977L218.671 227.889L287.714 81.9765Z" fill="url(#paint2_linear_497_339)"/>
<path d="M419.093 142.99C436.252 147.928 453.656 156.25 473.795 169.383L404.753 315.296C384.614 302.163 367.209 293.84 350.05 288.903L419.093 142.99Z" fill="url(#paint3_linear_497_339)"/>
<path d="M287.723 81.976L287.714 81.9764L218.671 227.889L218.68 227.889L287.723 81.976Z" fill="url(#paint4_linear_497_339)"/>
<path d="M343.833 93.3227C326.626 94.1276 310.63 97.2051 296.23 102.336L227.187 248.249C241.587 243.118 257.584 240.04 274.791 239.235L343.833 93.3227Z" fill="url(#paint5_linear_497_339)"/>
<path d="M296.23 102.336L287.723 81.976L218.68 227.889L227.188 248.248L296.23 102.336Z" fill="url(#paint6_linear_497_339)"/>
<path d="M363.054 137.097C384.072 136.246 401.888 138.04 419.093 142.99L350.05 288.903C332.845 283.952 315.029 282.158 294.012 283.01L363.054 137.097Z" fill="url(#paint7_linear_497_339)"/>
<path d="M473.795 169.383C511.033 193.669 531.008 218.74 545.124 251.933L476.081 397.846C461.965 364.652 441.991 339.581 404.752 315.296L473.795 169.383Z" fill="url(#paint8_linear_497_339)"/>
<path d="M471.685 185.347C425.403 156.067 372.937 140.731 325.604 142.587L256.561 288.5C303.894 286.644 356.361 301.98 402.642 331.26L471.685 185.347Z" fill="url(#paint9_linear_497_339)"/>
<path d="M325.604 142.587C335.993 139.445 348.251 137.697 363.054 137.097L294.012 283.01C279.209 283.609 266.95 285.358 256.561 288.5L325.604 142.587Z" fill="url(#paint10_linear_497_339)"/>
<path d="M545.124 251.933C525.843 226.644 500.723 203.718 471.685 185.347L402.642 331.26C431.68 349.631 456.8 372.557 476.081 397.846L545.124 251.933Z" fill="url(#paint11_linear_497_339)"/>
<path d="M278.558 60.0639C230.848 62.2957 192.404 81.9431 171.687 114.678L102.644 260.591C123.361 227.856 161.806 208.208 209.515 205.977L278.558 60.0639Z" fill="url(#paint12_linear_497_339)"/>
<path d="M546.121 253.251L593.153 251.051L524.11 396.964L477.079 399.163L546.121 253.251Z" fill="url(#paint13_linear_497_339)"/>
<path d="M312.862 147.596C316.41 145.831 320.209 144.305 324.3 143.002L255.258 288.914C251.167 290.218 247.367 291.744 243.82 293.508L312.862 147.596Z" fill="url(#paint14_linear_497_339)"/>
<path d="M291.145 104.241C267.972 113.534 249.315 128.405 236.959 147.929L167.916 293.841C180.272 274.318 198.93 259.446 222.102 250.154L291.145 104.241Z" fill="url(#paint15_linear_497_339)"/>
<path d="M218.174 141.616C234.856 116.826 257.648 106.703 291.145 104.241L222.102 250.154C188.605 252.616 165.814 262.739 149.131 287.528L218.174 141.616Z" fill="url(#paint16_linear_497_339)"/>
<path d="M324.3 143.002L342.452 186.464L273.409 332.377L255.258 288.914L324.3 143.002Z" fill="url(#paint17_linear_497_339)"/>
<path d="M449.076 215.532C464.459 224.967 476.774 234.213 486.976 243.915L417.934 389.828C407.732 380.126 395.416 370.88 380.034 361.445L449.076 215.532Z" fill="url(#paint18_linear_497_339)"/>
<path d="M573.459 300.368C566.68 284.146 557.431 268.29 546.122 253.251L477.079 399.164C488.388 414.203 497.637 430.058 504.416 446.28L573.459 300.368Z" fill="url(#paint19_linear_497_339)"/>
<path d="M342.452 186.464C379.112 184.75 410.666 191.973 449.076 215.532L380.033 361.445C341.623 337.886 310.069 330.663 273.409 332.377L342.452 186.464Z" fill="url(#paint20_linear_497_339)"/>
<path d="M281.213 178.381C289.947 163.673 300.1 153.942 312.862 147.596L243.819 293.508C231.058 299.855 220.904 309.585 212.17 324.293L281.213 178.381Z" fill="url(#paint21_linear_497_339)"/>
<path d="M504.363 265.014L502.85 261.48L433.807 407.393L435.32 410.926L504.363 265.014Z" fill="url(#paint22_linear_497_339)"/>
<path d="M506.791 270.913C506.104 269.129 505.144 266.849 504.363 265.014L435.32 410.927C436.102 412.762 437.061 415.042 437.749 416.826L506.791 270.913Z" fill="url(#paint23_linear_497_339)"/>
<path d="M510.018 280.075C510.018 280.075 508.169 274.488 506.791 270.913L437.749 416.825C439.126 420.4 440.975 425.988 440.975 425.988L510.018 280.075Z" fill="url(#paint24_linear_497_339)"/>
<path d="M509.91 280.081L510.018 280.076L440.975 425.988L440.868 425.993L509.91 280.081Z" fill="url(#paint25_linear_497_339)"/>
<path d="M502.85 261.48C512.092 273.482 519.643 287.067 526.363 303.437L457.32 449.35C450.6 432.98 443.049 419.395 433.807 407.393L502.85 261.48Z" fill="url(#paint26_linear_497_339)"/>
<path d="M171.687 114.678C169.439 118.23 167.42 121.905 165.63 125.69L96.6074 271.56C98.3924 267.79 100.405 264.13 102.644 260.591L171.687 114.678Z" fill="url(#paint27_linear_497_339)"/>
<path d="M236.959 147.929C234.711 151.482 232.691 155.157 230.901 158.943L161.878 304.814C163.663 301.043 165.676 297.381 167.916 293.841L236.959 147.929Z" fill="url(#paint28_linear_497_339)"/>
<path d="M486.976 243.915L370.798 249.349L301.755 395.261L417.934 389.828L486.976 243.915Z" fill="url(#paint29_linear_497_339)"/>
<path d="M210.887 154.293C212.865 150.118 215.284 145.909 218.174 141.615L149.131 287.528C146.242 291.822 143.822 296.03 141.845 300.206L210.887 154.293Z" fill="url(#paint30_linear_497_339)"/>
<path d="M203.959 182.617C204.223 172.962 206.424 163.732 210.867 154.336L141.845 300.206C137.388 309.617 135.181 318.86 134.917 328.529L203.959 182.617Z" fill="url(#paint31_linear_497_339)"/>
<path d="M526.363 303.437C534.312 322.804 537.983 338.396 537.601 352.394L468.558 498.306C468.94 484.309 465.269 468.716 457.32 449.35L526.363 303.437Z" fill="url(#paint32_linear_497_339)"/>
<path d="M575.923 409.304C590.629 378.205 589.873 339.65 573.459 300.367L504.416 446.28C520.83 485.562 521.587 524.118 506.88 555.217L575.923 409.304Z" fill="url(#paint33_linear_497_339)"/>
<path d="M386.059 285.872L462.504 282.297L393.461 428.21L317.016 431.785L386.059 285.872Z" fill="url(#paint34_linear_497_339)"/>
<path d="M507.274 375.3C520.264 347.833 521.18 314.546 509.911 280.08L440.868 425.993C452.138 460.459 451.221 493.745 438.232 521.213L507.274 375.3Z" fill="url(#paint35_linear_497_339)"/>
<path d="M370.798 249.349L386.059 285.872L317.017 431.785L301.755 395.261L370.798 249.349Z" fill="url(#paint36_linear_497_339)"/>
<path d="M273.9 193.835C275.721 188.676 278.147 183.544 281.213 178.381L273.9 193.835C266.15 215.792 269.354 238.242 280.809 265.658L211.766 411.571C197.619 377.713 196.057 351.429 212.17 324.294L273.9 193.835Z" fill="url(#paint37_linear_497_339)"/>
<path d="M462.504 282.298C470.583 306.747 470.877 327.439 461.064 348.163L392.041 494.034C401.834 473.324 401.535 452.644 393.461 428.21L462.504 282.298Z" fill="url(#paint38_linear_497_339)"/>
<path d="M165.63 125.69C150.923 156.789 151.68 195.344 168.094 234.626L99.0513 380.539C82.6371 341.257 81.8807 302.701 96.5874 271.602L165.63 125.69Z" fill="url(#paint39_linear_497_339)"/>
<path d="M230.901 158.942C216.752 188.862 216.915 225.682 231.566 263.413L162.523 409.326C147.872 371.595 147.709 334.775 161.859 304.855L230.901 158.942Z" fill="url(#paint40_linear_497_339)"/>
<path d="M215.197 231.573C207.247 212.206 203.577 196.614 203.959 182.617L134.916 328.529C134.535 342.526 138.205 358.119 146.154 377.485L215.197 231.573Z" fill="url(#paint41_linear_497_339)"/>
<path d="M537.601 352.393C537.336 362.063 535.129 371.307 530.672 380.718L461.65 526.588C466.093 517.191 468.294 507.961 468.558 498.306L537.601 352.393Z" fill="url(#paint42_linear_497_339)"/>
<path d="M461.064 348.163C459.851 350.724 458.485 353.285 456.959 355.853L387.916 501.766C389.442 499.197 390.809 496.636 392.021 494.076L461.064 348.163Z" fill="url(#paint43_linear_497_339)"/>
<path d="M530.672 380.718C528.695 384.893 526.275 389.102 523.386 393.395L454.344 539.307C457.233 535.014 459.652 530.806 461.629 526.631L530.672 380.718Z" fill="url(#paint44_linear_497_339)"/>
<path d="M231.565 263.413C225.447 253.97 220.099 243.514 215.197 231.573L146.155 377.485C151.057 389.426 156.404 399.883 162.523 409.326L231.565 263.413Z" fill="url(#paint45_linear_497_339)"/>
<path d="M501.222 386.305C503.46 382.769 505.471 379.111 507.254 375.344L438.232 521.213C436.443 524.996 434.426 528.668 432.179 532.217L501.222 386.305Z" fill="url(#paint46_linear_497_339)"/>
<path d="M569.866 420.315C572.106 416.777 574.118 413.116 575.903 409.346L506.88 555.217C505.09 559.002 503.071 562.676 500.824 566.228L569.866 420.315Z" fill="url(#paint47_linear_497_339)"/>
<path d="M234.529 267.823L280.809 265.658L211.766 411.571L165.486 413.735L234.529 267.823Z" fill="url(#paint48_linear_497_339)"/>
<path d="M244.513 280.61C240.958 276.538 237.646 272.29 234.529 267.822L165.486 413.735C168.604 418.203 171.916 422.45 175.47 426.523L244.513 280.61Z" fill="url(#paint49_linear_497_339)"/>
<path d="M456.959 355.853C448.224 370.561 438.072 380.291 425.31 386.638L356.267 532.551C369.029 526.204 379.182 516.474 387.916 501.766L456.959 355.853Z" fill="url(#paint50_linear_497_339)"/>
<path d="M408.261 370.451L399.108 348.546L330.065 494.459L339.218 516.363L408.261 370.451Z" fill="url(#paint51_linear_497_339)"/>
<path d="M399.108 348.546C362.449 350.26 330.893 343.036 292.484 319.478L223.441 465.391C261.85 488.948 293.406 496.173 330.066 494.459L399.108 348.546Z" fill="url(#paint52_linear_497_339)"/>
<path d="M292.484 319.478C271.666 306.709 256.454 294.287 244.513 280.61L175.47 426.523C187.411 440.2 202.623 452.622 223.441 465.391L292.484 319.478Z" fill="url(#paint53_linear_497_339)"/>
<path d="M408.252 370.451L408.261 370.45L339.218 516.363L339.209 516.363L408.252 370.451Z" fill="url(#paint54_linear_497_339)"/>
<path d="M523.387 393.394C505.768 419.572 481.34 429.406 444.681 431.121L375.639 577.034C412.298 575.319 436.726 565.485 454.344 539.307L523.387 393.394Z" fill="url(#paint55_linear_497_339)"/>
<path d="M416.552 390.315L408.252 370.451L339.209 516.364L347.51 536.228L416.552 390.315Z" fill="url(#paint56_linear_497_339)"/>
<path d="M168.094 234.626C186.507 278.69 223.113 320.066 269.868 349.646L200.825 495.559C154.07 465.979 117.464 424.602 99.0515 380.539L168.094 234.626Z" fill="url(#paint57_linear_497_339)"/>
<path d="M425.31 386.638C422.552 388.01 419.633 389.224 416.552 390.315L347.509 536.228C350.59 535.137 353.509 533.923 356.267 532.551L425.31 386.638Z" fill="url(#paint58_linear_497_339)"/>
<path d="M394.348 440.911C442.055 438.678 480.506 419.04 501.222 386.305L432.179 532.218C411.463 564.952 373.013 584.591 325.305 586.824L394.348 440.911Z" fill="url(#paint59_linear_497_339)"/>
<path d="M192.462 280.964L145.028 283.182L75.9854 429.095L123.419 426.877L192.462 280.964Z" fill="url(#paint60_linear_497_339)"/>
<path d="M462.996 474.93C510.705 472.698 549.15 453.051 569.866 420.315L500.824 566.228C480.107 598.964 441.663 618.61 393.953 620.842L462.996 474.93Z" fill="url(#paint61_linear_497_339)"/>
<path d="M409.307 392.549C399.633 395.116 388.405 396.599 375.118 397.137L306.075 543.05C319.362 542.511 330.59 541.029 340.264 538.461L409.307 392.549Z" fill="url(#paint62_linear_497_339)"/>
<path d="M269.868 349.647C313.996 377.565 363.744 392.799 409.307 392.549L340.264 538.461C294.701 538.711 244.954 523.477 200.825 495.56L269.868 349.647Z" fill="url(#paint63_linear_497_339)"/>
<path d="M264.377 364.851C226.642 340.241 206.61 314.822 192.462 280.964L123.42 426.877C137.567 460.735 157.599 486.154 195.335 510.763L264.377 364.851Z" fill="url(#paint64_linear_497_339)"/>
<path d="M444.681 431.121L453.838 453.034L384.795 598.947L375.639 577.034L444.681 431.121Z" fill="url(#paint65_linear_497_339)"/>
<path d="M375.118 397.137C354.102 397.988 336.284 396.194 319.079 391.244L250.037 537.157C267.241 542.107 285.059 543.901 306.075 543.05L375.118 397.137Z" fill="url(#paint66_linear_497_339)"/>
<path d="M453.837 453.034L453.843 453.025L384.8 598.938L384.795 598.947L453.837 453.034Z" fill="url(#paint67_linear_497_339)"/>
<path d="M319.079 391.244C301.921 386.306 284.515 377.984 264.377 364.851L195.334 510.764C215.473 523.896 232.878 532.219 250.037 537.157L319.079 391.244Z" fill="url(#paint68_linear_497_339)"/>
<path d="M453.843 453.025L462.995 474.93L393.953 620.842L384.8 598.938L453.843 453.025Z" fill="url(#paint69_linear_497_339)"/>
<path d="M145.028 283.183C163.441 327.246 200.056 368.622 246.811 398.203L177.768 544.115C131.013 514.535 94.3981 473.159 75.9854 429.095L145.028 283.183Z" fill="url(#paint70_linear_497_339)"/>
<path d="M246.811 398.203C293.566 427.781 346.639 443.142 394.348 440.911L325.305 586.824C277.596 589.055 224.523 573.693 177.768 544.115L246.811 398.203Z" fill="url(#paint71_linear_497_339)"/>
<path d="M370.797 249.348L486.976 243.915C476.774 234.213 464.458 224.967 449.076 215.532C410.666 191.973 379.112 184.75 342.452 186.464L333.301 164.543L324.3 143.002C320.209 144.305 316.41 145.831 312.862 147.595C300.1 153.942 289.947 163.672 281.213 178.381C265.1 205.516 266.662 231.8 280.809 265.658L257.092 266.767L257.083 266.767L234.529 267.822C237.646 272.29 240.958 276.537 244.513 280.61C256.454 294.287 271.666 306.708 292.484 319.477C330.893 343.035 362.449 350.259 399.108 348.546L408.261 370.45L408.252 370.45L416.552 390.315C419.633 389.224 422.552 388.009 425.31 386.638C438.072 380.291 448.224 370.561 456.959 355.853C470.831 332.493 471.581 309.768 462.504 282.297L386.059 285.872L370.797 249.348ZM363.054 137.097C348.251 137.696 335.993 139.445 325.604 142.587C372.937 140.731 425.403 156.067 471.685 185.347C500.723 203.718 525.843 226.644 545.124 251.933C531.008 218.739 511.033 193.668 473.795 169.383C453.656 156.25 436.252 147.927 419.093 142.99C401.887 138.039 384.071 136.245 363.054 137.097ZM291.145 104.241C257.648 106.703 234.856 116.826 218.174 141.615C208.772 155.586 204.341 168.656 203.959 182.616C203.577 196.614 207.247 212.206 215.197 231.573C220.099 243.513 225.447 253.97 231.565 263.413C215.061 220.908 216.942 179.558 236.959 147.928C249.315 128.404 267.972 113.533 291.145 104.241ZM504.363 265.013C505.144 266.849 506.104 269.129 506.791 270.912C508.169 274.488 510.018 280.075 510.018 280.075L509.911 280.08C522.732 319.292 519.78 356.978 501.222 386.305C480.506 419.039 442.055 438.678 394.348 440.91C346.639 443.142 293.566 427.78 246.811 398.202C200.056 368.622 163.441 327.246 145.028 283.182L192.462 280.964C206.61 314.822 226.642 340.241 264.377 364.85C284.515 377.983 301.921 386.306 319.079 391.244C336.284 396.194 354.102 397.988 375.118 397.137C388.405 396.598 399.632 395.116 409.307 392.548C363.744 392.798 313.996 377.564 269.868 349.646C223.113 320.066 186.507 278.69 168.094 234.626C149.682 190.562 150.971 147.414 171.687 114.678C192.404 81.9429 230.848 62.2955 278.557 60.0636L287.714 81.9763L287.723 81.9759L296.23 102.336C310.63 97.2046 326.626 94.1272 343.833 93.3223C391.542 91.0915 444.615 106.452 491.37 136.031C538.123 165.611 574.74 206.988 593.153 251.051L546.121 253.25C557.431 268.289 566.68 284.145 573.459 300.367C591.871 344.43 590.581 387.579 569.866 420.315C549.149 453.051 510.705 472.697 462.995 474.929L453.843 453.025L453.837 453.034L444.681 431.121C481.34 429.406 505.768 419.572 523.386 393.394C532.787 379.424 537.219 366.352 537.601 352.393C537.983 338.396 534.312 322.803 526.363 303.437C519.643 287.067 512.092 273.482 502.85 261.48L504.363 265.013Z" fill="#EFF1F3"/>
<defs>
<linearGradient id="paint0_linear_497_339" x1="293.922" y1="198.804" x2="430.98" y2="263.657" gradientUnits="userSpaceOnUse">
<stop stop-color="#D1D6DD"/>
<stop offset="0.5" stop-color="#C8D0D7"/>
<stop offset="1" stop-color="#BECCD3"/>
</linearGradient>
<linearGradient id="paint1_linear_497_339" x1="448.47" y1="226.696" x2="576.101" y2="287.088" gradientUnits="userSpaceOnUse">
<stop stop-color="#BECCD3"/>
<stop offset="0.5" stop-color="#B5C9D0"/>
<stop offset="1" stop-color="#BDCBD3"/>
</linearGradient>
<linearGradient id="paint2_linear_497_339" x1="257.538" y1="104.486" x2="273.491" y2="112.034" gradientUnits="userSpaceOnUse">
<stop stop-color="#BDCBD3"/>
<stop offset="1" stop-color="#BDCBD3"/>
</linearGradient>
<linearGradient id="paint3_linear_497_339" x1="388.287" y1="208.095" x2="443.186" y2="234.072" gradientUnits="userSpaceOnUse">
<stop stop-color="#C8D0D7"/>
<stop offset="0.5" stop-color="#C2CED5"/>
<stop offset="1" stop-color="#BECCD3"/>
</linearGradient>
<linearGradient id="paint4_linear_497_339" x1="269.155" y1="121.197" x2="269.163" y2="121.201" gradientUnits="userSpaceOnUse">
<stop stop-color="#D1D6DD"/>
<stop offset="1" stop-color="#D1D6DD"/>
</linearGradient>
<linearGradient id="paint5_linear_497_339" x1="273.51" y1="150.352" x2="308.92" y2="167.108" gradientUnits="userSpaceOnUse">
<stop stop-color="#D8DCE4"/>
<stop offset="0.5" stop-color="#D4D9E1"/>
<stop offset="1" stop-color="#D1D6DD"/>
</linearGradient>
<linearGradient id="paint6_linear_497_339" x1="266.878" y1="126.029" x2="281.7" y2="133.043" gradientUnits="userSpaceOnUse">
<stop stop-color="#BDCBD3"/>
<stop offset="1" stop-color="#BDCBD3"/>
</linearGradient>
<linearGradient id="paint7_linear_497_339" x1="333.45" y1="199.662" x2="381.515" y2="222.405" gradientUnits="userSpaceOnUse">
<stop stop-color="#D1D6DD"/>
<stop offset="0.5" stop-color="#CED4DA"/>
<stop offset="1" stop-color="#C8D0D7"/>
</linearGradient>
<linearGradient id="paint8_linear_497_339" x1="438.132" y1="244.752" x2="528.328" y2="287.43" gradientUnits="userSpaceOnUse">
<stop stop-color="#BECCD3"/>
<stop offset="0.5" stop-color="#B3C9CF"/>
<stop offset="1" stop-color="#BCCBD3"/>
</linearGradient>
<linearGradient id="paint9_linear_497_339" x1="275.912" y1="247.606" x2="411.801" y2="311.905" gradientUnits="userSpaceOnUse">
<stop stop-color="#D1D6DD"/>
<stop offset="0.5" stop-color="#C8D0D7"/>
<stop offset="1" stop-color="#BECCD3"/>
</linearGradient>
<linearGradient id="paint10_linear_497_339" x1="303.091" y1="190.166" x2="331.567" y2="203.641" gradientUnits="userSpaceOnUse">
<stop stop-color="#D7DBE3"/>
<stop offset="0.5" stop-color="#D3D8E0"/>
<stop offset="1" stop-color="#D1D6DD"/>
</linearGradient>
<linearGradient id="paint11_linear_497_339" x1="435.95" y1="260.869" x2="521.697" y2="301.443" gradientUnits="userSpaceOnUse">
<stop stop-color="#BECCD3"/>
<stop offset="0.5" stop-color="#B8CAD1"/>
<stop offset="1" stop-color="#B4C9D0"/>
</linearGradient>
<linearGradient id="paint12_linear_497_339" x1="158.412" y1="142.733" x2="224.617" y2="174.06" gradientUnits="userSpaceOnUse">
<stop stop-color="#D8DCE4"/>
<stop offset="0.5" stop-color="#DBDFE7"/>
<stop offset="1" stop-color="#D1D6DD"/>
</linearGradient>
<linearGradient id="paint13_linear_497_339" x1="520.598" y1="307.191" x2="558.175" y2="324.972" gradientUnits="userSpaceOnUse">
<stop stop-color="#D1D6DD"/>
<stop offset="1" stop-color="#D1D6DD"/>
</linearGradient>
<linearGradient id="paint14_linear_497_339" x1="294.338" y1="186.744" x2="301.907" y2="190.326" gradientUnits="userSpaceOnUse">
<stop stop-color="#DBDEE7"/>
<stop offset="0.5" stop-color="#D9DDE5"/>
<stop offset="1" stop-color="#D7DBE4"/>
</linearGradient>
<linearGradient id="paint15_linear_497_339" x1="227.887" y1="167.102" x2="255.27" y2="180.059" gradientUnits="userSpaceOnUse">
<stop stop-color="#D8DCE4"/>
<stop offset="0.5" stop-color="#E0E3EC"/>
<stop offset="1" stop-color="#D9DDE5"/>
</linearGradient>
<linearGradient id="paint16_linear_497_339" x1="203.259" y1="173.137" x2="248.431" y2="194.511" gradientUnits="userSpaceOnUse">
<stop stop-color="#D8DDE5"/>
<stop offset="0.5" stop-color="#DADEE6"/>
<stop offset="1" stop-color="#D1D7DE"/>
</linearGradient>
<linearGradient id="paint17_linear_497_339" x1="300.861" y1="192.537" x2="332.496" y2="207.506" gradientUnits="userSpaceOnUse">
<stop stop-color="#BDCBD3"/>
<stop offset="1" stop-color="#BDCBD3"/>
</linearGradient>
<linearGradient id="paint18_linear_497_339" x1="421.795" y1="273.188" x2="463.735" y2="293.033" gradientUnits="userSpaceOnUse">
<stop stop-color="#BFCCD3"/>
<stop offset="0.5" stop-color="#BCCBD2"/>
<stop offset="1" stop-color="#B8CAD1"/>
</linearGradient>
<linearGradient id="paint19_linear_497_339" x1="520.644" y1="307.094" x2="561.197" y2="326.283" gradientUnits="userSpaceOnUse">
<stop stop-color="#B4C9D0"/>
<stop offset="0.5" stop-color="#B8CAD1"/>
<stop offset="1" stop-color="#BDCBD3"/>
</linearGradient>
<linearGradient id="paint20_linear_497_339" x1="301.544" y1="272.916" x2="399.901" y2="319.457" gradientUnits="userSpaceOnUse">
<stop stop-color="#D1D6DD"/>
<stop offset="0.5" stop-color="#CAD1D8"/>
<stop offset="1" stop-color="#BFCCD3"/>
</linearGradient>
<linearGradient id="paint21_linear_497_339" x1="270.437" y1="201.154" x2="284.394" y2="207.758" gradientUnits="userSpaceOnUse">
<stop stop-color="#D7DCE4"/>
<stop offset="0.5" stop-color="#DEE1EA"/>
<stop offset="1" stop-color="#DBDEE7"/>
</linearGradient>
<linearGradient id="paint22_linear_497_339" x1="483.888" y1="301.554" x2="486.49" y2="302.785" gradientUnits="userSpaceOnUse">
<stop stop-color="#BCCBD2"/>
<stop offset="1" stop-color="#BCCBD2"/>
</linearGradient>
<linearGradient id="paint23_linear_497_339" x1="485.151" y1="305.617" x2="489.416" y2="307.635" gradientUnits="userSpaceOnUse">
<stop stop-color="#BCCBD3"/>
<stop offset="0.5" stop-color="#BDCBD3"/>
<stop offset="1" stop-color="#BECCD3"/>
</linearGradient>
<linearGradient id="paint24_linear_497_339" x1="487.332" y1="312.036" x2="493.511" y2="314.96" gradientUnits="userSpaceOnUse">
<stop stop-color="#BECCD3"/>
<stop offset="1" stop-color="#BFCCD3"/>
</linearGradient>
<linearGradient id="paint25_linear_497_339" x1="491.337" y1="319.332" x2="491.423" y2="319.373" gradientUnits="userSpaceOnUse">
<stop stop-color="#D1D6DD"/>
<stop offset="1" stop-color="#D1D6DD"/>
</linearGradient>
<linearGradient id="paint26_linear_497_339" x1="478.307" y1="313.349" x2="513.739" y2="330.115" gradientUnits="userSpaceOnUse">
<stop stop-color="#B4C9D0"/>
<stop offset="0.5" stop-color="#B9CAD1"/>
<stop offset="1" stop-color="#BDCBD3"/>
</linearGradient>
<linearGradient id="paint27_linear_497_339" x1="150.741" y1="157.157" x2="151.432" y2="157.484" gradientUnits="userSpaceOnUse">
<stop stop-color="#D5DAE2"/>
<stop offset="0.5" stop-color="#D6DBE3"/>
<stop offset="1" stop-color="#D8DCE4"/>
</linearGradient>
<linearGradient id="paint28_linear_497_339" x1="216.012" y1="190.408" x2="216.704" y2="190.735" gradientUnits="userSpaceOnUse">
<stop stop-color="#D5DAE2"/>
<stop offset="0.5" stop-color="#D6DBE3"/>
<stop offset="1" stop-color="#D8DCE4"/>
</linearGradient>
<linearGradient id="paint29_linear_497_339" x1="335.032" y1="324.935" x2="427.857" y2="368.857" gradientUnits="userSpaceOnUse">
<stop stop-color="#D1D6DD"/>
<stop offset="1" stop-color="#D1D6DD"/>
</linearGradient>
<linearGradient id="paint30_linear_497_339" x1="196.5" y1="184.698" x2="197.552" y2="185.196" gradientUnits="userSpaceOnUse">
<stop stop-color="#D5DAE2"/>
<stop offset="0.5" stop-color="#D7DBE3"/>
<stop offset="1" stop-color="#D8DDE5"/>
</linearGradient>
<linearGradient id="paint31_linear_497_339" x1="190.915" y1="196.503" x2="196.204" y2="199.006" gradientUnits="userSpaceOnUse">
<stop stop-color="#D5DAE2"/>
<stop offset="0.5" stop-color="#D0D6DD"/>
<stop offset="1" stop-color="#CBD2D8"/>
</linearGradient>
<linearGradient id="paint32_linear_497_339" x1="504.264" y1="350.141" x2="532.373" y2="363.441" gradientUnits="userSpaceOnUse">
<stop stop-color="#BDCBD3"/>
<stop offset="0.5" stop-color="#C2CED5"/>
<stop offset="1" stop-color="#CBD2D8"/>
</linearGradient>
<linearGradient id="paint33_linear_497_339" x1="550.567" y1="348.747" x2="594.696" y2="369.628" gradientUnits="userSpaceOnUse">
<stop stop-color="#BDCBD3"/>
<stop offset="0.5" stop-color="#C9D1D8"/>
<stop offset="1" stop-color="#D5DAE2"/>
</linearGradient>
<linearGradient id="paint34_linear_497_339" x1="356.178" y1="349.021" x2="417.256" y2="377.921" gradientUnits="userSpaceOnUse">
<stop stop-color="#D1D6DD"/>
<stop offset="1" stop-color="#D1D6DD"/>
</linearGradient>
<linearGradient id="paint35_linear_497_339" x1="488.426" y1="325.485" x2="523.086" y2="341.885" gradientUnits="userSpaceOnUse">
<stop stop-color="#BFCCD4"/>
<stop offset="0.5" stop-color="#CBD2D8"/>
<stop offset="1" stop-color="#D5DAE2"/>
</linearGradient>
<linearGradient id="paint36_linear_497_339" x1="348.137" y1="297.24" x2="374.727" y2="309.822" gradientUnits="userSpaceOnUse">
<stop stop-color="#BDCBD3"/>
<stop offset="1" stop-color="#BDCBD3"/>
</linearGradient>
<linearGradient id="paint37_linear_497_339" x1="258.033" y1="227.368" x2="291.446" y2="243.178" gradientUnits="userSpaceOnUse">
<stop stop-color="#D7DCE4"/>
<stop offset="0.5" stop-color="#C8D0D7"/>
<stop offset="1" stop-color="#BDCBD3"/>
</linearGradient>
<linearGradient id="paint38_linear_497_339" x1="441.788" y1="326.078" x2="466.076" y2="337.57" gradientUnits="userSpaceOnUse">
<stop stop-color="#BFCCD4"/>
<stop offset="0.5" stop-color="#C9D1D8"/>
<stop offset="1" stop-color="#D5DAE2"/>
</linearGradient>
<linearGradient id="paint39_linear_497_339" x1="141.926" y1="175.784" x2="186.056" y2="196.666" gradientUnits="userSpaceOnUse">
<stop stop-color="#D5DAE2"/>
<stop offset="0.5" stop-color="#C9D1D8"/>
<stop offset="1" stop-color="#BDCBD3"/>
</linearGradient>
<linearGradient id="paint40_linear_497_339" x1="207.685" y1="208.006" x2="248.618" y2="227.375" gradientUnits="userSpaceOnUse">
<stop stop-color="#D5DAE2"/>
<stop offset="0.5" stop-color="#CAD1D8"/>
<stop offset="1" stop-color="#BECCD3"/>
</linearGradient>
<linearGradient id="paint41_linear_497_339" x1="181.86" y1="229.32" x2="209.97" y2="242.62" gradientUnits="userSpaceOnUse">
<stop stop-color="#CBD2D8"/>
<stop offset="0.5" stop-color="#C2CED5"/>
<stop offset="1" stop-color="#BDCBD3"/>
</linearGradient>
<linearGradient id="paint42_linear_497_339" x1="517.662" y1="394.532" x2="522.951" y2="397.035" gradientUnits="userSpaceOnUse">
<stop stop-color="#CBD2D8"/>
<stop offset="0.5" stop-color="#D0D6DD"/>
<stop offset="1" stop-color="#D5DAE2"/>
</linearGradient>
<linearGradient id="paint43_linear_497_339" x1="440.985" y1="389.614" x2="441.365" y2="389.794" gradientUnits="userSpaceOnUse">
<stop stop-color="#D7DCE4"/>
<stop offset="0.5" stop-color="#D6DBE3"/>
<stop offset="1" stop-color="#D5DAE2"/>
</linearGradient>
<linearGradient id="paint44_linear_497_339" x1="508.999" y1="423.801" x2="510.051" y2="424.299" gradientUnits="userSpaceOnUse">
<stop stop-color="#D8DDE5"/>
<stop offset="0.5" stop-color="#D7DBE3"/>
<stop offset="1" stop-color="#D5DAE2"/>
</linearGradient>
<linearGradient id="paint45_linear_497_339" x1="192.411" y1="279.728" x2="218.095" y2="291.881" gradientUnits="userSpaceOnUse">
<stop stop-color="#BDCBD3"/>
<stop offset="0.5" stop-color="#BACAD2"/>
<stop offset="1" stop-color="#B6C9D0"/>
</linearGradient>
<linearGradient id="paint46_linear_497_339" x1="486.33" y1="417.777" x2="487.021" y2="418.104" gradientUnits="userSpaceOnUse">
<stop stop-color="#D8DCE4"/>
<stop offset="0.5" stop-color="#D6DBE3"/>
<stop offset="1" stop-color="#D5DAE2"/>
</linearGradient>
<linearGradient id="paint47_linear_497_339" x1="554.977" y1="451.782" x2="555.668" y2="452.11" gradientUnits="userSpaceOnUse">
<stop stop-color="#D8DCE4"/>
<stop offset="0.5" stop-color="#D6DBE3"/>
<stop offset="1" stop-color="#D5DAE2"/>
</linearGradient>
<linearGradient id="paint48_linear_497_339" x1="209.117" y1="321.528" x2="246.094" y2="339.025" gradientUnits="userSpaceOnUse">
<stop stop-color="#D1D6DD"/>
<stop offset="1" stop-color="#D1D6DD"/>
</linearGradient>
<linearGradient id="paint49_linear_497_339" x1="213.548" y1="312.162" x2="226.65" y2="318.361" gradientUnits="userSpaceOnUse">
<stop stop-color="#B5C9D0"/>
<stop offset="0.5" stop-color="#B3C9CF"/>
<stop offset="1" stop-color="#B4C9D0"/>
</linearGradient>
<linearGradient id="paint50_linear_497_339" x1="414.534" y1="409.411" x2="428.491" y2="416.016" gradientUnits="userSpaceOnUse">
<stop stop-color="#DBDEE7"/>
<stop offset="0.5" stop-color="#DEE1EA"/>
<stop offset="1" stop-color="#D7DCE4"/>
</linearGradient>
<linearGradient id="paint51_linear_497_339" x1="378.09" y1="392.966" x2="394.037" y2="400.512" gradientUnits="userSpaceOnUse">
<stop stop-color="#BDCBD3"/>
<stop offset="1" stop-color="#BDCBD3"/>
</linearGradient>
<linearGradient id="paint52_linear_497_339" x1="250.578" y1="408.039" x2="348.935" y2="454.58" gradientUnits="userSpaceOnUse">
<stop stop-color="#BFCCD3"/>
<stop offset="0.5" stop-color="#CAD1D8"/>
<stop offset="1" stop-color="#D1D6DD"/>
</linearGradient>
<linearGradient id="paint53_linear_497_339" x1="214.844" y1="343.312" x2="269.066" y2="368.968" gradientUnits="userSpaceOnUse">
<stop stop-color="#B4C9D0"/>
<stop offset="0.5" stop-color="#BACBD2"/>
<stop offset="1" stop-color="#BFCCD3"/>
</linearGradient>
<linearGradient id="paint54_linear_497_339" x1="389.694" y1="409.672" x2="389.701" y2="409.675" gradientUnits="userSpaceOnUse">
<stop stop-color="#D1D6DD"/>
<stop offset="1" stop-color="#D1D6DD"/>
</linearGradient>
<linearGradient id="paint55_linear_497_339" x1="428.953" y1="464.361" x2="478.674" y2="487.888" gradientUnits="userSpaceOnUse">
<stop stop-color="#D1D6DD"/>
<stop offset="0.5" stop-color="#D9DDE5"/>
<stop offset="1" stop-color="#D8DDE5"/>
</linearGradient>
<linearGradient id="paint56_linear_497_339" x1="387.463" y1="414.387" x2="401.925" y2="421.229" gradientUnits="userSpaceOnUse">
<stop stop-color="#BDCBD3"/>
<stop offset="1" stop-color="#BDCBD3"/>
</linearGradient>
<linearGradient id="paint57_linear_497_339" x1="125.196" y1="325.287" x2="252.82" y2="385.676" gradientUnits="userSpaceOnUse">
<stop stop-color="#BDCBD3"/>
<stop offset="0.5" stop-color="#B5C9D0"/>
<stop offset="1" stop-color="#BECCD3"/>
</linearGradient>
<linearGradient id="paint58_linear_497_339" x1="398.088" y1="429.337" x2="403.822" y2="432.05" gradientUnits="userSpaceOnUse">
<stop stop-color="#D8DCE4"/>
<stop offset="0.5" stop-color="#D9DDE6"/>
<stop offset="1" stop-color="#DBDEE7"/>
</linearGradient>
<linearGradient id="paint59_linear_497_339" x1="381.069" y1="468.975" x2="447.28" y2="500.305" gradientUnits="userSpaceOnUse">
<stop stop-color="#D1D6DD"/>
<stop offset="0.5" stop-color="#DBDFE7"/>
<stop offset="1" stop-color="#D8DCE4"/>
</linearGradient>
<linearGradient id="paint60_linear_497_339" x1="119.445" y1="337.249" x2="157.344" y2="355.182" gradientUnits="userSpaceOnUse">
<stop stop-color="#D1D6DD"/>
<stop offset="1" stop-color="#D1D6DD"/>
</linearGradient>
<linearGradient id="paint61_linear_497_339" x1="449.72" y1="502.985" x2="515.926" y2="534.312" gradientUnits="userSpaceOnUse">
<stop stop-color="#D1D6DD"/>
<stop offset="0.5" stop-color="#DBDFE7"/>
<stop offset="1" stop-color="#D8DCE4"/>
</linearGradient>
<linearGradient id="paint62_linear_497_339" x1="352.768" y1="444.369" x2="378.929" y2="456.748" gradientUnits="userSpaceOnUse">
<stop stop-color="#D1D6DD"/>
<stop offset="0.5" stop-color="#D3D8DF"/>
<stop offset="1" stop-color="#D6DBE2"/>
</linearGradient>
<linearGradient id="paint63_linear_497_339" x1="220.662" y1="453.638" x2="351.179" y2="515.395" gradientUnits="userSpaceOnUse">
<stop stop-color="#BECCD3"/>
<stop offset="0.5" stop-color="#C7D0D7"/>
<stop offset="1" stop-color="#D0D6DC"/>
</linearGradient>
<linearGradient id="paint64_linear_497_339" x1="156.644" y1="356.662" x2="247.834" y2="399.812" gradientUnits="userSpaceOnUse">
<stop stop-color="#BDCBD3"/>
<stop offset="0.5" stop-color="#B3C9CF"/>
<stop offset="1" stop-color="#BECCD3"/>
</linearGradient>
<linearGradient id="paint65_linear_497_339" x1="423.662" y1="475.543" x2="439.615" y2="483.092" gradientUnits="userSpaceOnUse">
<stop stop-color="#BDCBD3"/>
<stop offset="1" stop-color="#BDCBD3"/>
</linearGradient>
<linearGradient id="paint66_linear_497_339" x1="288.599" y1="455.66" x2="336.664" y2="478.404" gradientUnits="userSpaceOnUse">
<stop stop-color="#C8D0D7"/>
<stop offset="0.5" stop-color="#CED4DA"/>
<stop offset="1" stop-color="#D1D6DD"/>
</linearGradient>
<linearGradient id="paint67_linear_497_339" x1="435.283" y1="492.246" x2="435.284" y2="492.247" gradientUnits="userSpaceOnUse">
<stop stop-color="#D8DCE4"/>
<stop offset="1" stop-color="#D8DCE4"/>
</linearGradient>
<linearGradient id="paint68_linear_497_339" x1="233.571" y1="429.956" x2="288.47" y2="455.933" gradientUnits="userSpaceOnUse">
<stop stop-color="#BECCD3"/>
<stop offset="0.5" stop-color="#C2CED5"/>
<stop offset="1" stop-color="#C8D0D7"/>
</linearGradient>
<linearGradient id="paint69_linear_497_339" x1="432.824" y1="497.445" x2="448.771" y2="504.991" gradientUnits="userSpaceOnUse">
<stop stop-color="#BDCBD3"/>
<stop offset="1" stop-color="#BDCBD3"/>
</linearGradient>
<linearGradient id="paint70_linear_497_339" x1="102.128" y1="373.847" x2="229.759" y2="434.24" gradientUnits="userSpaceOnUse">
<stop stop-color="#BDCBD3"/>
<stop offset="0.5" stop-color="#B5C9D0"/>
<stop offset="1" stop-color="#BECCD3"/>
</linearGradient>
<linearGradient id="paint71_linear_497_339" x1="195.888" y1="505.821" x2="332.946" y2="570.674" gradientUnits="userSpaceOnUse">
<stop stop-color="#BECCD3"/>
<stop offset="0.5" stop-color="#C8D0D7"/>
<stop offset="1" stop-color="#D1D6DD"/>
</linearGradient>
</defs>
</svg>
