<?xml version="1.0" encoding="UTF-8"?>
<!DOCTYPE svg PUBLIC "-//W3C//DTD SVG 1.1//EN" "http://www.w3.org/Graphics/SVG/1.1/DTD/svg11.dtd">
<!-- Creator: CorelDRAW 2020 (64 Bit) -->
<svg xmlns="http://www.w3.org/2000/svg" xml:space="preserve" width="277.866mm" height="276.049mm" version="1.1" style="shape-rendering:geometricPrecision; text-rendering:geometricPrecision; image-rendering:optimizeQuality; fill-rule:evenodd; clip-rule:evenodd"
viewBox="0 0 27786.6 27604.9"
 xmlns:xlink="http://www.w3.org/1999/xlink"
 xmlns:xodm="http://www.corel.com/coreldraw/odm/2003">
 <defs>
  <style type="text/css">
   <![CDATA[
    .fil0 {fill:#FF4601;fill-rule:nonzero}
   ]]>
  </style>
 </defs>
 <g id="Camada_x0020_1">
  <metadata id="CorelCorpID_0Corel-Layer"/>
  <path class="fil0" d="M13649.67 1462.7c-25.32,0 -50.64,0.1 -75.93,0.31 25.11,-0.13 50.24,-0.18 75.43,-0.18l0 1353.1c996.79,-291.14 2038.25,-442.75 3095.36,-442.75 2928.38,0 5736.94,1163.32 7807.57,3234.05 2070.89,2070.71 3234,4879.21 3234,7807.67l-1456 0c0,-40.11 -0.27,-80.17 -0.8,-120.2 0.53,39.96 0.53,80.04 0.53,120.23l-1430.87 0c302.69,1014.84 460.38,2076.77 460.38,3154.97 0,2928.44 -1163.37,5736.8 -3234,7807.7 -2070.63,2070.63 -4879.21,3234 -7807.65,3234l0 -1455.74 -0.07 0 0 -1456c2250.33,0 3968.32,-566.47 5687.61,-2219.59 917.58,-881.86 1512.62,-1720.06 1886.74,-2628.9 375.18,-911.23 546.63,-1938.44 555.37,-3225.24 7.14,-1093.4 -106.63,-2005.73 -364.07,-2819.51l0 33.07 -7644.32 0 0 -1213.35 7134.73 0c-370.15,-663.68 -879.47,-1303.92 -1568.18,-1966.04 -1719.9,-1652.8 -3437.66,-2219.62 -5687.88,-2219.62l0 -1456.05c50.48,0 100.75,0.29 150.86,0.82 -50.22,-0.79 -100.49,-1.22 -150.79,-1.22l0 -1431.9c-278.92,72.47 -545.78,160.37 -803.61,264.51 -928.06,374.81 -1783.9,978.11 -2679.81,1910.32 -1652.8,1719.79 -2219.64,3437.52 -2219.64,5687.77l-1456.03 -0.03 -1387.37 0c75.33,300.76 168.27,587.46 279.88,863.76 374.8,928.06 978.08,1783.9 1910.31,2679.81 1719.77,1652.8 3437.52,2219.64 5687.75,2219.64l0 1455.9c0.19,0 0.35,0 0.5,0l0 1321.59c213.47,-61.65 420.06,-133.08 621.11,-214.31 928.03,-374.65 1783.9,-978.17 2679.81,-1910.29 1422.77,-1480.43 2040.81,-2959.39 2185.27,-4777.8l-4696.91 0 0 -1213.35 7644.32 0c0,0.9 6.88,370.15 0,606.69 -7.15,236.51 -35.72,604.47 -35.99,606.66l-1.85 0c-214.57,2595.22 -1341.43,5042.64 -3196.56,6897.64 -2070.74,2070.89 -4879.23,3234 -7807.67,3234 -2928.43,0 -5736.93,-1163.11 -7807.67,-3234 -2070.71,-2070.63 -3234.03,-4879.16 -3234.03,-7807.59l2911.48 0c0,2250.33 566.58,3968.3 2219.56,5687.75 882.07,917.31 1720.03,1512.36 2628.87,1886.74 911.34,375.18 1938.55,546.63 3225.35,555.1 812.83,5.55 1525.59,-56.1 2172.21,-193.94 -2749.21,-122.51 -5360.67,-1268.68 -7314.96,-3222.87 -2070.71,-2070.73 -3234.03,-4879.23 -3234.03,-7807.67 0,-2928.43 1163.32,-5736.93 3234.03,-7807.66 2070.73,-2070.71 4879.23,-3234.03 7807.66,-3234.03l0 1456.03zm3150.4 3822.59c-904.51,-6.03 -1685.13,70.86 -2388.53,243.34 2894.54,24.58 5665.13,1185.01 7713.8,3233.6 1287.2,1287.23 2223.82,2859.57 2748.22,4568.56 -14.02,-2209.16 -586.84,-3905.67 -2219.32,-5603.53 -882.12,-917.49 -1720.06,-1512.54 -2628.9,-1886.72 -911.23,-375.17 -1938.44,-546.68 -3225.27,-555.25zm-3498.01 -2361.75c-2082.05,57.26 -3710.67,647.94 -5340.53,2214.88 -917.5,882.07 -1512.54,1720.06 -1886.72,2628.87 -375.18,911.33 -546.68,1938.58 -555.25,3225.38 -5.35,799.04 54.05,1501.38 186.87,2139.24 72.37,-2825.86 1226.51,-5520.75 3230.43,-7524.68 1236,-1236 2734.87,-2148.7 4365.2,-2683.69z"/>
 </g>
</svg>
