<svg width="25" height="25" viewBox="0 0 25 25" fill="none" xmlns="http://www.w3.org/2000/svg">
<g clip-path="url(#clip0_26_486)">
<path d="M11.4585 7.29171H13.5418V9.37504H11.4585V7.29171ZM11.4585 11.4584H13.5418V17.7084H11.4585V11.4584ZM12.5002 2.08337C6.75016 2.08337 2.0835 6.75004 2.0835 12.5C2.0835 18.25 6.75016 22.9167 12.5002 22.9167C18.2502 22.9167 22.9168 18.25 22.9168 12.5C22.9168 6.75004 18.2502 2.08337 12.5002 2.08337ZM12.5002 20.8334C7.90641 20.8334 4.16683 17.0938 4.16683 12.5C4.16683 7.90629 7.90641 4.16671 12.5002 4.16671C17.0939 4.16671 20.8335 7.90629 20.8335 12.5C20.8335 17.0938 17.0939 20.8334 12.5002 20.8334Z" fill="#909090"/>
</g>
<defs>
<clipPath id="clip0_26_486">
<rect width="25" height="25" fill="white"/>
</clipPath>
</defs>
</svg>
